<?xml version="1.0" standalone="no"?>
<!DOCTYPE svg PUBLIC "-//W3C//DTD SVG 20010904//EN"
 "http://www.w3.org/TR/2001/REC-SVG-20010904/DTD/svg10.dtd">
<svg version="1.0" xmlns="http://www.w3.org/2000/svg"
 width="547.000000pt" height="547.000000pt" viewBox="0 0 547.000000 547.000000"
 preserveAspectRatio="xMidYMid meet">
<metadata>
Created by potrace 1.14, written by Peter Selinger 2001-2017
</metadata>
<g transform="translate(0.000000,547.000000) scale(0.100000,-0.100000)"
fill="#000000" stroke="none">
<path d="M3840 3116 c0 -58 65 -107 123 -92 41 10 78 56 75 90 -4 44 -31 45
-56 1 -29 -49 -67 -49 -88 0 -20 48 -54 49 -54 1z"/>
<path d="M2227 2990 c-144 -25 -255 -170 -244 -320 7 -114 68 -208 169 -262
36 -19 58 -23 138 -23 81 0 101 4 135 24 58 33 85 61 85 87 0 36 -35 40 -78
10 -53 -36 -86 -46 -149 -46 -95 0 -177 58 -207 148 -20 57 -20 85 -1 150 19
61 54 106 105 132 82 42 158 35 243 -21 32 -21 53 -28 67 -24 35 11 22 54 -28
92 -62 47 -150 67 -235 53z"/>
<path d="M272 2978 c-9 -9 -12 -87 -12 -289 0 -239 2 -280 16 -293 30 -31 17
-43 237 232 l172 216 3 -222 c2 -208 4 -222 22 -232 15 -8 24 -6 40 10 19 19
20 32 20 289 0 232 -2 272 -16 285 -34 35 -34 34 -259 -250 l-150 -189 -3 214
c-1 138 -6 219 -13 228 -14 16 -41 17 -57 1z"/>
<path d="M1152 2978 c-13 -13 -18 -554 -4 -574 11 -17 35 -22 55 -12 15 8 17
25 17 133 l0 125 165 0 165 0 0 -115 c0 -102 2 -117 20 -135 16 -16 25 -18 40
-10 18 10 20 25 22 286 2 151 0 284 -4 295 -10 25 -54 25 -68 0 -5 -11 -10
-72 -10 -136 l0 -115 -162 2 -163 3 -3 125 c-2 84 -7 127 -15 132 -18 11 -41
10 -55 -4z"/>
<path d="M3047 2978 c-22 -17 -239 -535 -235 -562 3 -24 41 -34 63 -16 7 6 21
33 31 61 l18 49 148 0 149 0 25 -59 c26 -60 42 -75 69 -65 34 13 24 48 -89
315 -126 298 -134 310 -179 277z m86 -250 l55 -138 -115 0 c-88 0 -114 3 -110
13 3 6 24 59 47 117 23 58 46 116 51 129 5 13 11 22 13 20 2 -2 29 -66 59
-141z"/>
<path d="M3672 2978 c-9 -9 -12 -88 -12 -295 l0 -284 23 -8 c14 -6 27 -5 36 3
8 6 91 108 185 226 l171 214 6 -214 c3 -118 6 -216 7 -217 1 -1 11 -7 22 -13
15 -8 24 -6 40 10 19 19 20 32 20 284 0 240 -2 266 -18 286 -13 16 -24 21 -38
16 -10 -4 -98 -106 -194 -228 l-175 -221 -3 213 c-1 137 -6 218 -13 227 -14
16 -41 17 -57 1z"/>
<path d="M4466 2974 c-20 -19 -20 -29 0 -48 12 -12 36 -16 100 -16 l84 0 0
-249 c0 -214 2 -252 16 -265 18 -19 20 -19 45 -6 18 10 19 24 19 265 l0 254
91 3 c75 2 94 6 103 21 8 12 8 22 0 35 -10 15 -34 17 -227 20 -186 2 -217 0
-231 -14z"/>
</g>
</svg>
